#N canvas 150 380 592 486 12;
#X obj 28 32 fruit/fruit 1 barrette1 10 barrette_fw 1;
#X obj 28 347 fruit/receive barrette1;
#X obj 28 372 print;
#X obj 28 301 fruit/send barrette1;
#X msg 165 275 EHello;
#X obj 28 123 list prepend 0;
#X msg 122 99 0 0 0;
#X msg 28 98 255 128 1;
#X obj 28 230 list prepend 0;
#X obj 141 171 loadbang;
#X msg 141 196 symbol P;
#X obj 141 221 list fromsymbol;
#X obj 28 200 fruit/encode 1;
#X floatatom 153 130 5 0 30 1 led - - 0;
#X obj 340 223 list prepend 0;
#X obj 453 164 loadbang;
#X obj 453 214 list fromsymbol;
#X obj 340 193 fruit/encode 1;
#X msg 453 189 symbol H;
#X msg 340 131 1 2 3 4 5 6 7 8;
#X listbox 151 413 64 0 0 0 - - - 0;
#X text 518 189 fake hall;
#X text 206 199 pixel led;
#X connect 1 0 2 0;
#X connect 4 0 3 1;
#X connect 5 0 12 0;
#X connect 6 0 5 0;
#X connect 7 0 5 0;
#X connect 8 0 3 0;
#X connect 9 0 10 0;
#X connect 10 0 11 0;
#X connect 11 0 8 1;
#X connect 12 0 8 0;
#X connect 13 0 5 1;
#X connect 14 0 20 0;
#X connect 14 0 3 0;
#X connect 15 0 18 0;
#X connect 16 0 14 1;
#X connect 17 0 14 0;
#X connect 18 0 16 0;
#X connect 19 0 17 0;
