#N canvas 263 19 849 704 10;
#X msg 330 169 1;
#X obj 303 142 t s b;
#X obj 341 271 s \$0-bootfruitname;
#X obj 424 343 sel 1;
#X obj 502 493 symbol;
#X obj 548 493 r \$0-bootfruitname;
#X obj 424 363 spigot;
#X msg 471 342 1;
#X msg 480 367 0;
#X obj 502 514 t s b;
#X obj 254 283 b;
#X msg 160 202 stop;
#X obj 53 513 t s b;
#X msg 529 585 0;
#X msg 80 618 0;
#X obj 400 324 tgl 15 0 empty empty empty 17 7 0 10 #fcfcfc #000000 #000000 0 1;
#X obj 160 271 del 10000;
#X obj 303 21 inlet;
#X obj 337 76 s \$0-bootprogfile;
#X obj 303 329 del 200;
#X obj 303 211 symbol;
#X msg 221 322 stop;
#X msg 53 559 \$1 program_error;
#X msg 502 538 \$1 programmed;
#X obj 303 585 symbol;
#X obj 336 564 r \$0-bootfruitname;
#X msg 322 641 \$1 not responding. retrying...;
#X obj 424 406 s \$0-bootdoprogram;
#X obj 346 438 spigot;
#X msg 383 418 1;
#X msg 391 437 0;
#X obj 346 396 r \$0-DONE;
#X msg 365 603 \$1 successfully programmed;
#X msg 242 454 stop;
#X obj 242 503 t b b;
#X obj 53 488 symbol;
#X obj 86 467 r \$0-bootfruitname;
#X msg 185 615 aborting programming \$1!;
#X obj 442 388 bng 15 250 50 0 empty empty empty 17 7 0 10 #fcfcfc #000000 #000000;
#X obj 303 235 t b s b, f 9;
#X obj 242 530 s \$0-DONE;
#X obj 212 479 bng 15 250 50 0 empty empty empty 17 7 0 10 #fcfcfc #000000 #000000;
#X obj 659 124 r \$0-prog-progress;
#X obj 704 145 r \$0-bootfruitname;
#X obj 659 166 pack f s;
#X msg 659 189 \$2 prog_progress \$1;
#X obj 205 538 bng 15 250 50 0 empty empty empty 17 7 0 10 #fcfcfc #000000 #000000;
#X text 339 20 (program) Fruitname HexFile is_pied_fruit;
#X obj 465 82 t b b;
#X obj 436 54 bng 18 250 50 0 empty empty empty 0 -9 0 10 #fcfcfc #000000 #000000;
#X obj 492 105 s \$1-bootstoptimers;
#X obj 212 394 r \$1-bootstoptimers;
#X obj 160 175 r \$1-bootstoptimers;
#N canvas 342 39 1205 953 sendfile 1;
#X obj 32 67 bng 15 250 50 0 empty empty program 17 7 0 10 #fc8000 #000000 #000000;
#X obj 70 641 t a b;
#X obj 363 125 sel X, f 30;
#X obj 578 282 print checksumerror;
#X obj 562 332 print DONE !;
#X obj 547 380 print unsupported-command;
#X obj 207 153 symbol;
#X obj 258 700 r \$0-msgtimeout-stop;
#X obj 412 97 s \$0-msgtimeout-stop;
#X msg 410 267 0;
#X msg 438 267 1;
#X msg 632 213 0;
#X msg 660 212 1;
#X msg 588 214 prev;
#X obj 631 192 r \$0-auto;
#X obj 396 243 r \$0-auto;
#X obj 594 171 print format-error;
#X obj 385 51 sel V;
#X obj 562 308 s \$0-DONE;
#X obj 98 108 s \$0-auto;
#X msg 98 73 1;
#X obj 131 49 r \$0-DONE;
#X msg 131 70 0;
#X obj 363 288 spigot;
#X obj 588 237 spigot;
#X obj 287 771 s \$0-msgtimeout;
#X msg 258 723 stop;
#X floatatom 281 555 5 0 0 0 - - - 0;
#X obj 258 657 /;
#X obj 258 677 outlet;
#X obj 207 129 r \$0-bootprogfile;
#X obj 32 23 r \$0-bootdoprogram;
#X obj 144 89 s \$0-msgtimeout-stop;
#X obj 162 70 bng 15 250 50 0 empty empty empty 17 7 0 10 #fcfcfc #000000 #000000;
#X obj 445 50 r \$0-auto;
#X obj 412 74 spigot;
#X obj 588 194 del 3;
#X obj 547 355 spigot 0;
#X text 604 356 silent 'u' error for now;
#X obj 207 198 text define \$0-progtxt;
#X msg 207 175 read -c \$1;
#X obj 273 633 text size \$0-progtxt;
#X obj 27 227 route prev bang rewind;
#X msg 113 256 0;
#X obj 70 278 f, f 7;
#X obj 70 256 b;
#X obj 27 276 f;
#X obj 27 297 max 0;
#X obj 70 524 t f f, f 9;
#X obj 70 572 text get \$0-progtxt;
#X obj 27 206 r \$0-progtxt_ctl;
#X obj 32 179 s \$0-progtxt_ctl;
#X obj 363 310 s \$0-progtxt_ctl;
#X obj 588 259 s \$0-progtxt_ctl;
#X floatatom 319 669 5 0 0 0 - - - 0;
#X msg 365 501 prev;
#X obj 365 404 r \$0-msgtimeout;
#X msg 409 449 0;
#X msg 436 449 1;
#X obj 398 426 r \$0-auto;
#X obj 365 481 spigot;
#X obj 365 523 s \$0-progtxt_ctl;
#X msg 32 157 rewind \, bang;
#X obj 32 132 t b b b, f 27;
#X msg 233 474 v2;
#X obj 329 163 bng 18 250 50 0 empty empty empty 0 -9 0 10 #fcfcfc #000000 #000000;
#X obj 40 837 print;
#X obj 528 201 bng 18 250 50 0 empty empty empty 0 -9 0 10 #fcfcfc #000000 #000000;
#X msg 419 218 3;
#X obj 654 311 bng 18 250 50 0 empty empty empty 0 -9 0 10 #fcfcfc #000000 #000000;
#X obj 319 277 bng 18 250 50 0 empty empty empty 0 -9 0 10 #fcfcfc #000000 #000000;
#X obj 41 254 - 0;
#X obj 287 748 del 400;
#X obj 222 39 sel 0;
#X obj 332 115 bng 18 250 50 0 empty empty empty 0 -9 0 10 #fcfcfc #000000 #000000;
#X obj 315 248 bng 18 250 50 0 empty empty empty 0 -9 0 10 #fcfcfc #000000 #000000;
#X floatatom 8 383 5 0 0 0 - - - 0;
#X obj 16 331 bng 18 250 50 0 empty empty empty 0 -9 0 10 #fcfcfc #000000 #000000;
#X obj 783 74 &&;
#X obj 809 74 t b f;
#X obj 783 129 s \$0-use-pico-bootloading;
#X obj 95 431 t b f, f 13;
#X obj 95 477 +, f 13;
#X obj 160 285 r \$0-use-pico-bootloading;
#X obj 70 329 list prepend 0;
#X obj 70 352 route 0 1;
#X obj 122 278 + 1;
#X obj 13 604 route bang;
#X obj 363 217 del 0.1;
#X obj 241 361 r \$0-use-pico-bootloading;
#X obj 220 385 f, f 4;
#X obj 220 362 b, f 2;
#X obj 783 103 * 1;
#X obj 859 84 tgl 18 0 empty empty disable\ pico\ bld 0 -9 0 10 #fcfcfc #000000 #000000 0 1;
#X obj 859 107 == 0;
#X msg 220 408 #P\$1;
#X obj 267 412 tgl 18 0 empty empty empty 0 -9 0 10 #fcfcfc #000000 #000000 0 1;
#X msg 33 520 0;
#X msg 424 555 timeout! retry...;
#X obj 424 582 print fraise program \$1;
#X obj 717 247 s \$0-boot_error_abort;
#X obj 811 103 t b f;
#X floatatom 156 548 5 0 0 0 - - - 0;
#X obj 70 548 moses 1e+08;
#X msg 140 523 4;
#X obj 363 25 r \$1-bootmsgFrompied;
#X obj 783 24 r \$1-fruit-bld-is-pico;
#X obj 809 49 r \$1-pied-is-pico;
#X obj 222 16 r \$1-on-snd;
#X obj 70 812 s \$1-pied-rcv;
#X obj 737 51 tgl 18 0 empty empty empty 0 -9 0 10 #fcfcfc #000000 #000000 0 1;
#X obj 740 83 tgl 18 0 empty empty empty 0 -9 0 10 #fcfcfc #000000 #000000 0 1;
#X obj 317 72 bng 18 250 50 0 empty empty empty 0 -9 0 10 #fcfcfc #000000 #000000;
#X obj 547 148 sel u Y z l EE;
#X obj 752 131 tgl 18 0 empty empty empty 0 -9 0 10 #fcfcfc #000000 #000000 0 1;
#X obj 622 779 list store;
#X obj 622 729 list prepend append;
#X obj 622 752 list trim;
#X obj 622 700 list append 38;
#X obj 751 822 list length;
#X floatatom 751 845 5 0 0 0 - - - 0;
#X obj 679 879 s \$1-piedbytes-rcv;
#X obj 565 648 route bang;
#X obj 595 617 text get \$0-progtxt;
#X obj 595 535 t b f, f 12;
#X obj 595 581 +, f 12;
#X obj 576 505 t b f b;
#X obj 70 306 t f f, f 19;
#X obj 95 409 route 0 1;
#X obj 159 361 tgl 18 0 empty empty compound 0 -9 0 10 #fcfcfc #000000 #000000 0 1;
#X floatatom 484 663 5 0 0 0 - - - 0;
#X floatatom 181 658 5 0 0 0 - - - 0;
#X floatatom 211 718 5 0 0 0 - - - 0;
#X obj 271 577 t f b;
#X listbox 486 912 80 0 0 0 - - - 0;
#X listbox 17 950 156 0 0 0 - - - 0;
#X obj 339 874 list tosymbol;
#X obj 353 918 print;
#X msg 735 575 0;
#X obj 622 672 list fromsymbol;
#X obj 38 923 bng 18 250 50 0 empty empty empty 0 -9 0 10 #fcfcfc #000000 #000000;
#X obj 304 414 spigot;
#X obj 326 389 tgl 18 0 empty empty empty 0 -9 0 10 #fcfcfc #000000 #000000 0 1;
#X msg 305 438 W1;
#X msg 679 415 24;
#X msg 576 438 0;
#X obj 32 87 del 1000;
#X msg 771 453 1620;
#X obj 562 690 bng 18 250 50 0 empty empty empty 0 -9 0 10 #fcfcfc #000000 #000000;
#X obj 622 802 route bang;
#X obj 509 838 spigot;
#X obj 548 797 tgl 18 0 empty empty empty 0 -9 0 10 #fcfcfc #000000 #000000 0 1;
#X obj 95 386 list prepend 1;
#X obj 970 71 loadbang;
#X msg 970 94 1;
#X msg 95 454 0 \, 1;
#X obj 800 668 print;
#X msg 689 540 0 \, 1 \, 2 \, 3;
#X obj 805 635 bng 18 250 50 0 empty empty empty 0 -9 0 10 #fcfcfc #000000 #000000;
#X msg 595 558 0 \, 1 \, 2 \, 3;
#X obj 363 148 i;
#X obj 394 148 + 1;
#X obj 363 190 sel 3;
#X obj 679 841 t a b;
#X msg 423 149 0;
#X obj 144 252 r \$0-bytes_per_packet;
#X obj 854 225 r \$0-use-pico-bootloading;
#X obj 854 248 sel 0 1;
#X msg 854 271 1;
#X msg 884 271 4;
#X obj 854 294 s \$0-bytes_per_packet;
#X obj 408 173 r \$0-bytes_per_packet;
#X floatatom 500 242 5 0 0 0 - - - 0;
#X obj 492 290 tgl 18 0 empty empty empty 0 -9 0 10 #fcfcfc #000000 #000000 0 1;
#X obj 506 266 bng 18 250 50 0 empty empty empty 0 -9 0 10 #fcfcfc #000000 #000000;
#X obj 408 195 - 1;
#X floatatom 480 203 5 0 0 0 - - - 0;
#X connect 0 0 146 0;
#X connect 1 0 109 0;
#X connect 1 1 164 0;
#X connect 2 0 74 0;
#X connect 2 0 160 0;
#X connect 2 1 113 0;
#X connect 6 0 40 0;
#X connect 7 0 26 0;
#X connect 9 0 23 1;
#X connect 10 0 23 1;
#X connect 11 0 24 1;
#X connect 12 0 24 1;
#X connect 13 0 24 0;
#X connect 14 0 24 1;
#X connect 15 0 23 1;
#X connect 15 0 173 0;
#X connect 17 1 35 0;
#X connect 20 0 19 0;
#X connect 21 0 22 0;
#X connect 21 0 32 0;
#X connect 22 0 19 0;
#X connect 23 0 52 0;
#X connect 24 0 53 0;
#X connect 26 0 72 0;
#X connect 27 0 133 0;
#X connect 28 0 29 0;
#X connect 28 0 132 0;
#X connect 30 0 6 0;
#X connect 31 0 0 0;
#X connect 31 0 20 0;
#X connect 33 0 32 0;
#X connect 34 0 35 1;
#X connect 35 0 8 0;
#X connect 36 0 13 0;
#X connect 37 0 5 0;
#X connect 40 0 39 0;
#X connect 41 0 28 1;
#X connect 41 0 54 0;
#X connect 42 0 46 0;
#X connect 42 1 45 0;
#X connect 42 2 43 0;
#X connect 43 0 44 1;
#X connect 44 0 71 0;
#X connect 44 0 86 0;
#X connect 44 0 76 0;
#X connect 44 0 127 0;
#X connect 45 0 44 0;
#X connect 46 0 47 0;
#X connect 47 0 44 0;
#X connect 48 0 103 0;
#X connect 49 0 87 0;
#X connect 50 0 42 0;
#X connect 55 0 61 0;
#X connect 56 0 60 0;
#X connect 57 0 60 1;
#X connect 58 0 60 1;
#X connect 59 0 60 1;
#X connect 60 0 55 0;
#X connect 60 0 98 0;
#X connect 62 0 51 0;
#X connect 63 0 62 0;
#X connect 63 1 41 0;
#X connect 63 2 91 0;
#X connect 63 2 141 0;
#X connect 64 0 109 0;
#X connect 65 0 88 0;
#X connect 68 0 88 1;
#X connect 69 0 18 0;
#X connect 70 0 52 0;
#X connect 71 0 46 1;
#X connect 72 0 25 0;
#X connect 73 0 22 0;
#X connect 77 0 46 0;
#X connect 78 0 92 0;
#X connect 79 0 78 0;
#X connect 79 1 78 1;
#X connect 81 0 155 0;
#X connect 81 1 82 1;
#X connect 82 0 48 0;
#X connect 83 0 84 1;
#X connect 84 0 85 0;
#X connect 85 0 48 0;
#X connect 85 1 126 0;
#X connect 86 0 44 1;
#X connect 87 1 1 0;
#X connect 88 0 23 0;
#X connect 89 0 90 1;
#X connect 90 0 95 0;
#X connect 91 0 90 0;
#X connect 92 0 80 0;
#X connect 92 0 114 0;
#X connect 93 0 94 0;
#X connect 94 0 101 0;
#X connect 95 0 109 0;
#X connect 96 0 95 0;
#X connect 97 0 49 0;
#X connect 98 0 99 0;
#X connect 101 0 92 0;
#X connect 101 1 92 1;
#X connect 103 0 49 0;
#X connect 103 1 102 0;
#X connect 104 0 103 1;
#X connect 105 0 2 0;
#X connect 105 0 17 0;
#X connect 105 0 112 0;
#X connect 106 0 78 0;
#X connect 106 0 110 0;
#X connect 107 0 79 0;
#X connect 107 0 111 0;
#X connect 108 0 73 0;
#X connect 113 0 37 0;
#X connect 113 0 67 0;
#X connect 113 0 88 0;
#X connect 113 1 18 0;
#X connect 113 2 3 0;
#X connect 113 2 36 0;
#X connect 113 3 16 0;
#X connect 113 3 88 0;
#X connect 113 4 100 0;
#X connect 115 0 149 0;
#X connect 116 0 117 0;
#X connect 117 0 115 0;
#X connect 118 0 116 0;
#X connect 119 0 120 0;
#X connect 122 0 148 0;
#X connect 122 1 139 0;
#X connect 123 0 122 0;
#X connect 124 0 159 0;
#X connect 124 1 125 1;
#X connect 125 0 123 0;
#X connect 126 0 115 0;
#X connect 126 1 124 0;
#X connect 126 1 130 0;
#X connect 126 2 115 1;
#X connect 127 0 84 0;
#X connect 127 1 27 0;
#X connect 128 0 81 0;
#X connect 129 0 152 1;
#X connect 133 0 28 0;
#X connect 133 1 72 0;
#X connect 135 0 140 0;
#X connect 136 0 135 0;
#X connect 136 0 137 0;
#X connect 138 0 123 0;
#X connect 139 0 118 0;
#X connect 141 0 143 0;
#X connect 142 0 141 1;
#X connect 143 0 109 0;
#X connect 144 0 126 0;
#X connect 145 0 126 0;
#X connect 146 0 63 0;
#X connect 147 0 126 0;
#X connect 149 1 119 0;
#X connect 149 1 150 0;
#X connect 149 1 163 0;
#X connect 150 0 136 0;
#X connect 151 0 150 1;
#X connect 152 0 128 0;
#X connect 153 0 154 0;
#X connect 155 0 82 0;
#X connect 158 0 156 0;
#X connect 159 0 125 0;
#X connect 160 0 161 0;
#X connect 160 0 162 0;
#X connect 160 0 172 0;
#X connect 161 0 160 1;
#X connect 162 0 88 0;
#X connect 162 0 75 0;
#X connect 163 0 121 0;
#X connect 163 1 164 0;
#X connect 164 0 160 1;
#X connect 165 0 86 1;
#X connect 166 0 167 0;
#X connect 167 0 168 0;
#X connect 167 1 169 0;
#X connect 168 0 170 0;
#X connect 169 0 170 0;
#X connect 171 0 175 0;
#X connect 172 0 174 0;
#X connect 175 0 162 1;
#X connect 175 0 176 0;
#X restore 660 70 pd sendfile;
#X obj 660 91 s \$0-prog-progress;
#X obj 100 537 s \$1-quitbld;
#X obj 53 583 s \$1-Bootloader-snd;
#X obj 80 638 s \$1-bootloadermode;
#X obj 529 605 s \$1-bootloadermode;
#X obj 502 562 s \$1-Bootloader-snd;
#X obj 597 537 s \$1-quitbld;
#X obj 423 437 r \$1-bootloadermode;
#X obj 659 213 s \$1-Bootloader-snd;
#X obj 328 292 s \$1-enterbld;
#X obj 330 189 s \$1-bootloadermode;
#X obj 424 321 r \$1-verified;
#X obj 513 321 r \$1-bootloadermode;
#X obj 465 61 r \$0-boot_error_abort;
#X obj 689 527 s \$1-updating_fw;
#X msg 689 504 0;
#X msg 718 504 1;
#X obj 689 433 r \$0-DONE;
#X obj 322 666 print fraise program \$2;
#X listbox 45 370 20 0 0 0 - - - 0;
#X obj 242 481 del 20000;
#X obj 183 371 r \$0-msgtimeout-stop;
#X obj 183 417 b;
#X obj 26 674 s \$1-bootstoptimers;
#X obj 303 51 unpack f s f;
#X obj 303 111 makefilename %02X;
#X listbox 117 130 20 0 0 0 - - - 0;
#X connect 0 0 64 0;
#X connect 1 0 20 0;
#X connect 1 1 0 0;
#X connect 1 1 16 0;
#X connect 3 0 6 0;
#X connect 4 0 9 0;
#X connect 5 0 4 1;
#X connect 6 0 8 0;
#X connect 6 0 11 0;
#X connect 6 0 27 0;
#X connect 6 0 29 0;
#X connect 6 0 38 0;
#X connect 6 0 74 0;
#X connect 7 0 6 1;
#X connect 8 0 6 1;
#X connect 9 0 23 0;
#X connect 9 0 32 0;
#X connect 9 1 13 0;
#X connect 9 1 60 0;
#X connect 10 0 20 0;
#X connect 11 0 16 0;
#X connect 11 0 21 0;
#X connect 12 0 22 0;
#X connect 12 0 37 0;
#X connect 12 0 77 0;
#X connect 12 1 14 0;
#X connect 12 1 55 0;
#X connect 12 1 69 0;
#X connect 13 0 58 0;
#X connect 14 0 57 0;
#X connect 16 0 21 0;
#X connect 16 0 35 0;
#X connect 17 0 78 0;
#X connect 19 0 10 0;
#X connect 19 0 24 0;
#X connect 20 0 39 0;
#X connect 21 0 19 0;
#X connect 22 0 56 0;
#X connect 23 0 59 0;
#X connect 24 0 26 0;
#X connect 25 0 24 1;
#X connect 26 0 72 0;
#X connect 28 0 30 0;
#X connect 28 0 4 0;
#X connect 28 0 33 0;
#X connect 29 0 28 1;
#X connect 30 0 28 1;
#X connect 31 0 28 0;
#X connect 32 0 72 0;
#X connect 33 0 74 0;
#X connect 34 0 40 0;
#X connect 34 0 35 0;
#X connect 34 1 30 0;
#X connect 35 0 12 0;
#X connect 36 0 35 1;
#X connect 36 0 73 0;
#X connect 37 0 72 0;
#X connect 39 0 19 0;
#X connect 39 1 2 0;
#X connect 39 1 63 0;
#X connect 39 2 7 0;
#X connect 39 2 70 0;
#X connect 41 0 34 0;
#X connect 42 0 44 0;
#X connect 43 0 44 1;
#X connect 44 0 45 0;
#X connect 45 0 62 0;
#X connect 46 0 40 0;
#X connect 46 0 55 0;
#X connect 48 0 34 0;
#X connect 48 1 50 0;
#X connect 49 0 48 0;
#X connect 51 0 33 0;
#X connect 52 0 11 0;
#X connect 53 0 54 0;
#X connect 61 0 30 0;
#X connect 65 0 3 0;
#X connect 65 0 15 0;
#X connect 66 0 8 0;
#X connect 67 0 48 0;
#X connect 69 0 68 0;
#X connect 70 0 68 0;
#X connect 71 0 69 0;
#X connect 74 0 34 0;
#X connect 75 0 76 0;
#X connect 76 0 74 0;
#X connect 78 0 79 0;
#X connect 78 1 18 0;
#X connect 79 0 80 0;
#X connect 79 0 1 0;
