#N canvas 42 43 672 421 12;
#X declare -path Fraise8;
#X obj 45 17 declare -path Fraise8;
#X obj 46 59 pied/pied 1;
#X obj 53 169 barrette/0barrette;
#X obj 213 84 fruit/fruit 1 programer 0 programer_fw;
#X obj 58 235 testboard/0testboard;
#X obj 288 159 hsl 170 20 1 100 1 0 empty empty empty -2 -10 0 12 #fcfcfc #000000 #000000 0 1;
#X msg 285 184 1 \$1;
#X msg 476 155 EHello;
#X obj 285 209 fruit/send programer;
#X obj 476 90 fruit/receive programer;
#X obj 476 115 print from_programer;
#X msg 498 220 63;
#X listbox 498 270 20 0 0 0 - - - 0;
#X obj 498 245 makefilename %02X;
#X msg 498 294 P\$1;
#X text 498 193 poll;
#X obj 560 168 loadbang;
#X obj 560 193 tgl 20 0 empty empty empty 0 -10 0 12 #fcfcfc #000000 #000000 0 1;
#X obj 560 218 metro 100;
#X connect 5 0 6 0;
#X connect 6 0 8 0;
#X connect 7 0 8 1;
#X connect 9 0 10 0;
#X connect 11 0 13 0;
#X connect 12 0 14 0;
#X connect 13 0 12 0;
#X connect 14 0 8 1;
#X connect 16 0 17 0;
#X connect 17 0 18 0;
