#N canvas 626 73 454 479 10;
#X obj 33 38 inlet;
#X text 27 11 usage: fruit/decode type;
#X text 202 13 type: [u]int8 [u]int16 [u]int32;
#X obj 160 50 loadbang;
#X obj 160 73 symbol \$1;
#X msg 160 123 1;
#X msg 239 121 2;
#X msg 318 119 4;
#X obj 33 167 list split, f 28;
#X obj 52 264 list split 1;
#X obj 33 445 outlet;
#X obj 304 445 outlet;
#X obj 52 240 t a a, f 15;
#X obj 139 263 list split 1;
#X obj 139 287 +;
#X obj 33 191 t b a b;
#X obj 33 337 f;
#X obj 168 287 * 256;
#X msg 72 214 0;
#X obj 160 96 sel int8 uint8 int16 uint16 int32 uint32;
#X obj 135 49 bng 18 250 50 0 empty empty empty 0 -9 0 10 #fcfcfc #000000 #000000;
#X msg 199 122 1;
#X msg 278 120 2;
#X msg 357 118 4;
#X obj 239 205 * 8;
#X obj 239 279 / 2;
#X obj 33 371 moses, f 16;
#X obj 126 395 -;
#X msg 278 281 1e+16;
#X obj 239 254 pow;
#X msg 239 231 2 \$1;
#X connect 0 0 8 0;
#X connect 3 0 4 0;
#X connect 4 0 19 0;
#X connect 5 0 8 1;
#X connect 5 0 24 0;
#X connect 6 0 8 1;
#X connect 6 0 24 0;
#X connect 7 0 8 1;
#X connect 7 0 24 0;
#X connect 8 0 15 0;
#X connect 8 1 11 0;
#X connect 9 1 12 0;
#X connect 12 0 9 0;
#X connect 12 1 13 0;
#X connect 13 0 14 0;
#X connect 14 0 16 1;
#X connect 14 0 17 0;
#X connect 15 0 16 0;
#X connect 15 1 12 0;
#X connect 15 2 18 0;
#X connect 16 0 26 0;
#X connect 17 0 14 1;
#X connect 18 0 14 1;
#X connect 18 0 16 1;
#X connect 19 0 5 0;
#X connect 19 1 21 0;
#X connect 19 2 6 0;
#X connect 19 3 22 0;
#X connect 19 4 7 0;
#X connect 19 5 23 0;
#X connect 20 0 4 0;
#X connect 21 0 8 1;
#X connect 21 0 28 0;
#X connect 22 0 8 1;
#X connect 22 0 28 0;
#X connect 23 0 8 1;
#X connect 23 0 28 0;
#X connect 24 0 30 0;
#X connect 25 0 26 1;
#X connect 26 0 10 0;
#X connect 26 1 27 0;
#X connect 27 0 10 0;
#X connect 28 0 26 1;
#X connect 29 0 27 1;
#X connect 29 0 25 0;
#X connect 30 0 29 0;
#X coords 0 0 1 1 200 40 0;
