#N canvas 153 21 642 910 10;
#X obj 132 239 mod 256;
#X obj 240 305 mod 256, f 4;
#X obj 189 282 t f f, f 9;
#X obj 189 305 div 256;
#X obj 189 350 pack f f, f 9;
#X obj 456 417 mod 256;
#X obj 303 283 t f f, f 26;
#X obj 303 306 div 256;
#X obj 303 440 pack f f f f, f 26;
#X obj 405 417 mod 256;
#X obj 303 328 t f f, f 17;
#X obj 303 351 div 256;
#X obj 354 417 mod 256;
#X obj 303 374 t f f, f 9;
#X obj 303 397 div 256;
#X obj 303 417 mod 256;
#X obj 189 328 mod 256;
#X obj 132 570 list;
#X obj 111 597 list;
#X obj 18 574 t b b, f 16;
#X msg 18 599 list;
#X obj 132 546 list prepend;
#X obj 18 24 inlet bytes;
#X text 262 73 types: int8 (or c) = 8 bits integer (signed or not);
#X text 304 84 int16 (or i) = 16 bits integer (signed or not);
#X text 304 96 int32 (or l) = 32 bits integer (signed or not);
#X obj 105 95 list split 1, f 15;
#X obj 18 71 t b a b, f 30;
#X obj 151 119 list, f 5;
#X obj 105 118 t b a;
#X obj 132 166 list prepend c;
#X obj 132 189 list trim;
#X obj 132 141 route float symbol;
#X msg 213 106 symbol c;
#X text 96 24 input: [type1] val1 [[type2] val2 [...]];
#X msg 328 508 \$4 \$3 \$2 \$1;
#X obj 303 463 list prepend 0, f 34;
#X obj 303 486 route 0 1;
#X obj 303 509 t a;
#X obj 303 260 unpack f f, f 34;
#X msg 189 236 \$1 0;
#X obj 189 373 list prepend 0;
#X obj 189 396 route 0 1;
#X obj 189 419 t a;
#X obj 189 259 unpack f f, f 14;
#X msg 214 418 \$2 \$1;
#X obj 132 213 route c int8 i int16 li lint16 l int32 ll lint32;
#X msg 246 235 \$1 1;
#X msg 303 237 \$1 0;
#X msg 360 236 \$1 1;
#X text 304 109 lint16 (or li) = 16 bits integer little-endian encoded;
#X text 304 121 lint32 (or ll) = 32 bits integer little-endian encoded;
#X obj 111 882 outlet;
#X obj 111 624 list prepend 0;
#X obj 111 651 route 0 1, f 45;
#X obj 215 576 loadbang;
#X obj 215 599 f \$1;
#X obj 215 622 != 0;
#X obj 244 678 t b a b, f 30;
#X obj 269 707 list split 1;
#X obj 350 708 t a;
#X obj 269 731 makefilename %02X;
#X obj 244 832 list store, f 30;
#X obj 269 757 list fromsymbol;
#X obj 269 781 list prepend prepend;
#X obj 269 806 list trim;
#X connect 0 0 21 0;
#X connect 1 0 4 1;
#X connect 2 0 3 0;
#X connect 2 1 1 0;
#X connect 3 0 16 0;
#X connect 4 0 41 0;
#X connect 5 0 8 3;
#X connect 6 0 7 0;
#X connect 6 1 5 0;
#X connect 7 0 10 0;
#X connect 8 0 36 0;
#X connect 9 0 8 2;
#X connect 10 0 11 0;
#X connect 10 1 9 0;
#X connect 11 0 13 0;
#X connect 12 0 8 1;
#X connect 13 0 14 0;
#X connect 13 1 12 0;
#X connect 14 0 15 0;
#X connect 15 0 8 0;
#X connect 16 0 4 0;
#X connect 17 0 18 1;
#X connect 17 0 21 1;
#X connect 18 0 53 0;
#X connect 19 0 20 0;
#X connect 19 1 18 0;
#X connect 20 0 17 0;
#X connect 21 0 17 0;
#X connect 22 0 27 0;
#X connect 26 0 29 0;
#X connect 26 1 28 1;
#X connect 27 0 19 0;
#X connect 27 1 26 0;
#X connect 27 2 33 0;
#X connect 28 0 26 0;
#X connect 29 0 28 0;
#X connect 29 1 32 0;
#X connect 30 0 31 0;
#X connect 31 0 46 0;
#X connect 32 0 30 0;
#X connect 32 1 30 1;
#X connect 33 0 30 1;
#X connect 35 0 38 0;
#X connect 36 0 37 0;
#X connect 37 0 38 0;
#X connect 37 1 35 0;
#X connect 38 0 21 0;
#X connect 39 0 6 0;
#X connect 39 1 36 1;
#X connect 40 0 44 0;
#X connect 41 0 42 0;
#X connect 42 0 43 0;
#X connect 42 1 45 0;
#X connect 43 0 21 0;
#X connect 44 0 2 0;
#X connect 44 1 41 1;
#X connect 45 0 43 0;
#X connect 46 0 0 0;
#X connect 46 1 0 0;
#X connect 46 2 40 0;
#X connect 46 3 40 0;
#X connect 46 4 47 0;
#X connect 46 5 47 0;
#X connect 46 6 48 0;
#X connect 46 7 48 0;
#X connect 46 8 49 0;
#X connect 46 9 49 0;
#X connect 47 0 44 0;
#X connect 48 0 39 0;
#X connect 49 0 39 0;
#X connect 53 0 54 0;
#X connect 54 0 52 0;
#X connect 54 1 58 0;
#X connect 55 0 56 0;
#X connect 56 0 57 0;
#X connect 57 0 53 1;
#X connect 58 0 62 0;
#X connect 58 1 59 0;
#X connect 58 2 62 1;
#X connect 59 0 61 0;
#X connect 59 1 60 0;
#X connect 60 0 59 0;
#X connect 61 0 63 0;
#X connect 62 0 52 0;
#X connect 63 0 64 0;
#X connect 64 0 65 0;
#X connect 65 0 62 0;
