#N canvas 743 346 450 415 12;
#X obj 31 372 outlet;
#X msg 31 126 symbol \$2;
#X obj 31 149 list fromsymbol;
#X obj 31 172 t a a;
#X obj 58 195 list length;
#X obj 31 251 list split;
#X obj 58 218 - 1;
#X obj 64 279 sel 41;
#X obj 31 321 list append;
#X text 110 280 remove "(";
#X obj 31 344 list tosymbol;
#X obj 31 74 text search \$1 0;
#X obj 31 18 inlet;
#X msg 31 50 list set(\$1;
#X obj 31 99 text get \$1;
#X connect 1 0 2 0;
#X connect 2 0 3 0;
#X connect 3 0 5 0;
#X connect 3 1 4 0;
#X connect 4 0 6 0;
#X connect 5 0 8 0;
#X connect 5 1 7 0;
#X connect 6 0 5 1;
#X connect 7 0 8 1;
#X connect 7 1 8 1;
#X connect 8 0 10 0;
#X connect 10 0 0 0;
#X connect 11 0 14 0;
#X connect 12 0 13 0;
#X connect 13 0 11 0;
#X connect 14 0 1 0;
