#N canvas 356 138 1071 661 10;
#X declare -path command;
#X declare -path .;
#X obj 14 17 inlet;
#X symbolatom 33 224 10 0 0 0 - - - 0;
#X obj 33 245 s \$0-make-fruitname;
#X obj 107 223 s \$0-make-src;
#X symbolatom 107 196 90 0 0 0 - - - 0;
#X symbolatom 209 143 0 0 0 0 - - - 0;
#X obj 175 119 s \$0-fraisedir;
#N canvas 172 262 403 207 get_board 0;
#X obj 21 19 inlet;
#X obj 21 39 b;
#X obj 21 133 t b a, f 9;
#X obj 21 156 outlet;
#X obj 72 155 outlet;
#X obj 275 148 print MAKE ERROR;
#X msg 275 125 no board found !;
#X obj 21 93 extract_cmake_set \$0-board-cmake;
#X msg 21 68 symbol FRAISE_BOARD;
#X listbox 121 151 20 0 0 0 - - - 0;
#X connect 0 0 1 0;
#X connect 1 0 8 0;
#X connect 2 0 3 0;
#X connect 2 1 4 0;
#X connect 6 0 5 0;
#X connect 7 0 9 0;
#X connect 7 0 2 0;
#X connect 8 0 7 0;
#X restore 14 273 pd get_board;
#X symbolatom 83 296 10 0 0 0 - - - 0;
#X obj 83 317 s \$0-make-boardname;
#X obj 221 286 print MAKE;
#X msg 221 263 Board: \$1;
#X obj 53 104 s \$0-make-init;
#X obj 175 0 r \$0-make-init;
#X obj 14 409 spigot;
#X obj 353 504 r \$0-make-tobatch;
#X obj 14 82 t b a b;
#X obj 221 241 r \$0-make-boardname;
#X msg 359 525 print;
#X msg 399 525 write test.sh cr;
#X symbolatom 307 173 0 0 0 0 - - - 0;
#N canvas 402 25 708 428 tosystem*OSDEP 0;
#X obj 22 20 inlet tosystem;
#X obj 307 119 list prepend nohup;
#X obj 22 240 list trim;
#X obj 22 272 shell;
#X obj 22 88 demux_os \$0, f 48;
#X obj 307 139 list append &;
#X obj 164 137 list append ";
#X obj 164 114 list prepend cmd /c ";
#X obj 39 127 list prepend nohup;
#X obj 63 154 list append &;
#X obj 340 215 declare -path command;
#X obj 174 257 command;
#X listbox 117 289 94 0 0 0 - - - 0;
#X obj 174 207 list prepend exec;
#X obj 174 230 list trim;
#X obj 276 253 bng 18 250 50 0 empty empty empty 0 -9 0 10 #fcfcfc #000000 #000000;
#X obj 174 366 print COMMAND_EXIT;
#X obj 193 342 print COMMAND_STDOUT;
#X obj 213 318 print COMMAND_STDERR;
#X connect 0 0 4 0;
#X connect 1 0 5 0;
#X connect 2 0 3 0;
#X connect 4 0 13 0;
#X connect 4 1 7 0;
#X connect 4 2 1 0;
#X connect 5 0 2 0;
#X connect 6 0 2 0;
#X connect 7 0 6 0;
#X connect 8 0 2 0;
#X connect 9 0 2 0;
#X connect 11 0 16 0;
#X connect 11 1 17 0;
#X connect 11 2 18 0;
#X connect 13 0 12 0;
#X connect 13 0 14 0;
#X connect 13 0 15 0;
#X connect 14 0 11 0;
#X restore 354 604 pd tosystem*OSDEP;
#X obj 354 581 r \$0-make-launchbatch;
#X obj 78 193 bng 15 250 50 0 empty empty empty 17 7 0 10 #fcfcfc #000000 #000000;
#N canvas 683 100 416 300 shell-utils*OSDEP 0;
#X obj 51 19 r \$0-make-addpath;
#X obj 51 190 list prepend add;
#X obj 51 233 s \$0-make-tobatch;
#X obj 51 211 list trim;
#X obj 169 121 pack s s;
#X obj 214 59 loadbang;
#X msg 169 147 list PATH=%PATH%\$2\$1;
#X msg 214 80 59;
#X obj 214 100 makefilename %c;
#X obj 51 98 t b s;
#X obj 51 142 pack s s;
#X msg 51 120 symbol PATH=$PATH;
#X msg 51 163 symbol \$1:\$2;
#X obj 51 78 symbol;
#X obj 169 98 symbol;
#X obj 51 48 demux_os \$0;
#X connect 0 0 15 0;
#X connect 1 0 3 0;
#X connect 3 0 2 0;
#X connect 4 0 6 0;
#X connect 5 0 7 0;
#X connect 6 0 1 0;
#X connect 7 0 8 0;
#X connect 8 0 4 1;
#X connect 9 0 11 0;
#X connect 9 1 10 1;
#X connect 10 0 12 0;
#X connect 11 0 10 0;
#X connect 12 0 1 0;
#X connect 13 0 9 0;
#X connect 14 0 4 0;
#X connect 15 0 13 0;
#X connect 15 1 14 0;
#X connect 15 2 13 0;
#X restore 353 479 pd shell-utils*OSDEP;
#X obj 353 550 textfile;
#X obj 317 7 r \$0-fraisedir;
#X symbolatom 608 136 0 0 0 0 - - - 0;
#X obj 639 45 r \$0-fraisedir;
#X msg 639 66 symbol \$1/boards;
#X msg 175 64 symbol \$1/../..;
#X msg 175 21 dir;
#X obj 175 42 pdcontrol;
#X obj 353 423 text define \$0-main;
#X msg 353 402 clear \, read -c \$1;
#X msg 47 384 1;
#X msg 86 384 0;
#X obj 74 406 tgl 16 0 empty empty empty 0 -8 0 10 #fcfcfc #000000 #000000 0 1;
#X obj 639 108 s \$0-boardsdir;
#X obj 639 87 file normalize;
#X obj 175 85 file normalize;
#X obj 694 312 text define \$0-binconfig;
#X obj 667 354 text search \$0-binconfig;
#X obj 667 377 text get \$0-binconfig;
#X msg 667 334 symbol OS;
#X msg 667 398 symbol \$2;
#X obj 667 269 t b s;
#X symbolatom 736 400 10 0 0 0 - - - 0;
#X obj 667 419 s \$0-make-OS;
#X obj 353 456 declare -path .;
#X obj 392 282 file isfile;
#X msg 455 304 0;
#X obj 353 282 t s s;
#X obj 353 305 list prepend;
#X obj 353 328 route 1 0;
#X obj 353 372 symbol;
#X msg 396 372 symbol \$1pp;
#X obj 396 349 symbol;
#N canvas 101 421 450 300 is_clean 0;
#X obj 66 99 list;
#X obj 66 47 route clean;
#X obj 66 71 t a b;
#X obj 121 126 s \$0-make-is-clean;
#X obj 129 69 t a b;
#X obj 66 21 inlet;
#X obj 66 122 outlet;
#X msg 121 95 1;
#X msg 156 94 0;
#X connect 0 0 6 0;
#X connect 1 0 2 0;
#X connect 1 1 4 0;
#X connect 2 0 0 0;
#X connect 2 1 7 0;
#X connect 4 0 0 0;
#X connect 4 1 8 0;
#X connect 5 0 1 0;
#X connect 7 0 3 0;
#X connect 8 0 3 0;
#X restore 14 45 pd is_clean;
#X obj 33 125 list split 3;
#X obj 33 149 unpack s s f, f 19;
#X obj 144 171 s \$0-make-is_pied_fruit;
#X msg 694 291 clear \, read -c \$1/bin/bin_config.txt;
#X obj 429 120 s \$0-toolchain-path;
#X obj 667 248 r \$0-toolchain-path;
#X msg 634 6 symbol /C/Users/Admin/Documents/Pd/externals/Fraise-toolchain;
#X obj 317 53 file which;
#X msg 317 29 symbol Fraise-toolchain/bin/bin_config.txt;
#X obj 317 122 file normalize;
#X msg 317 98 symbol \$1/..;
#X obj 317 76 file splitname;
#X msg 487 399 clear \, read -c \$1;
#X obj 526 279 file isfile;
#X msg 589 301 0;
#X obj 487 279 t s s;
#X obj 487 302 list prepend;
#X obj 487 325 route 1 0;
#X obj 487 369 symbol;
#X msg 530 369 symbol \$1pp;
#X obj 530 346 symbol;
#X obj 487 420 text define \$0-board-cmake;
#X obj 47 339 r \$0-make-boardname;
#X obj 47 363 sel pico;
#X obj 353 239 r \$0-make-src;
#X obj 487 234 r \$0-make-src;
#X obj 14 436 ../../pico/make \$0 \$1;
#X msg 487 256 symbol \$1/board.cmake;
#X msg 353 260 symbol \$1/main.c;
#X connect 0 0 58 0;
#X connect 1 0 2 0;
#X connect 4 0 3 0;
#X connect 7 0 14 0;
#X connect 7 1 8 0;
#X connect 8 0 9 0;
#X connect 11 0 10 0;
#X connect 13 0 31 0;
#X connect 14 0 85 0;
#X connect 15 0 25 0;
#X connect 16 0 7 0;
#X connect 16 1 59 0;
#X connect 16 2 12 0;
#X connect 17 0 11 0;
#X connect 18 0 25 0;
#X connect 19 0 25 0;
#X connect 22 0 21 0;
#X connect 23 0 4 0;
#X connect 26 0 67 0;
#X connect 28 0 29 0;
#X connect 29 0 39 0;
#X connect 30 0 40 0;
#X connect 31 0 32 0;
#X connect 32 0 30 0;
#X connect 34 0 33 0;
#X connect 35 0 37 0;
#X connect 35 0 14 1;
#X connect 36 0 37 0;
#X connect 36 0 14 1;
#X connect 39 0 27 0;
#X connect 39 0 38 0;
#X connect 40 0 5 0;
#X connect 40 0 6 0;
#X connect 42 0 43 0;
#X connect 43 0 45 0;
#X connect 44 0 42 0;
#X connect 45 0 47 0;
#X connect 45 0 48 0;
#X connect 46 0 44 0;
#X connect 46 1 62 0;
#X connect 50 0 53 1;
#X connect 50 1 51 0;
#X connect 51 0 53 1;
#X connect 52 0 53 0;
#X connect 52 1 50 0;
#X connect 53 0 54 0;
#X connect 54 0 55 0;
#X connect 54 1 57 0;
#X connect 55 0 34 0;
#X connect 56 0 34 0;
#X connect 57 0 56 0;
#X connect 58 0 16 0;
#X connect 59 0 60 0;
#X connect 60 0 1 0;
#X connect 60 1 4 0;
#X connect 60 2 61 0;
#X connect 62 0 41 0;
#X connect 64 0 46 0;
#X connect 65 0 63 0;
#X connect 66 0 70 0;
#X connect 67 0 66 0;
#X connect 68 0 20 0;
#X connect 68 0 63 0;
#X connect 69 0 68 0;
#X connect 70 0 69 0;
#X connect 71 0 80 0;
#X connect 72 0 75 1;
#X connect 72 1 73 0;
#X connect 73 0 75 1;
#X connect 74 0 75 0;
#X connect 74 1 72 0;
#X connect 75 0 76 0;
#X connect 76 0 77 0;
#X connect 76 1 79 0;
#X connect 77 0 71 0;
#X connect 78 0 71 0;
#X connect 79 0 78 0;
#X connect 81 0 82 0;
#X connect 82 0 35 0;
#X connect 82 1 36 0;
#X connect 83 0 87 0;
#X connect 84 0 86 0;
#X connect 86 0 74 0;
#X connect 87 0 52 0;
