#N canvas 42 360 922 420 12;
#X obj 299 134 fruit/send testboard;
#X msg 401 319 EHello;
#X obj 200 246 fruit/fruit 63 testboardf0 0 testboard_fw;
#X obj 299 163 fruit/receive testboard;
#X obj 299 188 print from_testboard;
#X obj 264 344 fruit/send testboardf0;
#X obj 503 279 fruit/receive testboardf0;
#X obj 503 304 print from_testboardf0;
#X obj 35 80 list prepend declare -path ../Fraise8;
#X msg 430 377 Coucou;
#X listbox 529 195 26 0 0 0 - - - 0;
#X msg 467 334 PBon voila c'est bien ça;
#X floatatom 461 51 5 0 0 0 - - - 0;
#X obj 38 246 pied/pied 63 1;
#X msg 758 171 L\$1;
#X obj 761 120 hsl 170 20 1 30 0 0 empty empty empty -2 -10 0 12 #fcfcfc #000000 #000000 0 1;
#X obj 758 145 makefilename %02X;
#X floatatom 810 170 5 0 0 0 - - - 0;
#X msg 484 218 V;
#X msg 751 291 35 83 51 70;
#X obj 751 316 list tosymbol;
#X listbox 751 341 20 0 0 0 - - - 0;
#X msg 723 252 35 67 51 70;
#X obj 529 219 list length;
#X floatatom 529 244 5 0 0 0 - - - 0;
#X obj 529 170 fudiformat -u;
#X obj 529 145 list;
#X msg 424 89 EHello\$1 sdjifosidojfsdfk dskfkjsdfhk sdfkjshfdkjs dfg fd dfg df gdf gf \$1;
#X obj 550 14 tgl 20 0 empty empty empty 0 -10 0 12 #fcfcfc #000000 #000000 0 1;
#X obj 550 64 i;
#X obj 586 64 + 1;
#X msg 650 49 0;
#X obj 550 39 metro 10;
#X msg 613 16 5;
#X msg 586 12 20;
#X msg 652 19 10;
#X obj 512 13 bng 20 250 50 0 empty empty empty 0 -10 0 12 #fcfcfc #000000 #000000;
#X obj 40 132 fruit/fruit 1 testboard 63 testboard_fw 1;
#X connect 1 0 5 1;
#X connect 3 0 4 0;
#X connect 6 0 7 0;
#X connect 9 0 5 1;
#X connect 10 0 23 0;
#X connect 11 0 5 1;
#X connect 12 0 27 0;
#X connect 14 0 0 1;
#X connect 15 0 16 0;
#X connect 15 0 17 0;
#X connect 16 0 14 0;
#X connect 18 0 0 1;
#X connect 19 0 20 0;
#X connect 20 0 21 0;
#X connect 22 0 20 0;
#X connect 23 0 24 0;
#X connect 25 0 10 0;
#X connect 26 0 25 0;
#X connect 27 0 0 1;
#X connect 27 0 26 0;
#X connect 28 0 32 0;
#X connect 29 0 30 0;
#X connect 29 0 12 0;
#X connect 30 0 29 1;
#X connect 31 0 29 0;
#X connect 32 0 29 0;
#X connect 33 0 32 1;
#X connect 34 0 32 1;
#X connect 35 0 32 1;
#X connect 36 0 29 0;
