#N canvas 50 433 717 420 12;
#X obj 44 184 pied/pied 63;
#X msg 436 47 EHello;
#X obj 40 70 fruit/fruit 1 testboard 63 testboard_fw;
#X obj 299 72 fruit/send testboard;
#X msg 401 257 EHello;
#X obj 200 184 fruit/fruit 63 testboardf0 0 testboard_fw;
#X obj 299 101 fruit/receive testboard;
#X obj 299 126 print from_testboard;
#X obj 264 282 fruit/send testboardf0;
#X obj 503 217 fruit/receive testboardf0;
#X obj 503 242 print from_testboardf0;
#X obj 35 18 list prepend declare -path ../Fraise8;
#X msg 430 315 Coucou;
#X obj 515 83 list fromsymbol;
#X obj 515 58 symbol;
#X listbox 515 108 26 0 0 0 - - - 0;
#X connect 1 0 3 1;
#X connect 1 0 14 0;
#X connect 4 0 8 1;
#X connect 6 0 7 0;
#X connect 9 0 10 0;
#X connect 12 0 8 1;
#X connect 13 0 15 0;
#X connect 14 0 13 0;
