#N canvas 46 513 922 420 12;
#X obj 40 70 fruit/fruit 1 testboard 63 testboard_fw;
#X obj 299 72 fruit/send testboard;
#X msg 401 257 EHello;
#X obj 200 184 fruit/fruit 63 testboardf0 0 testboard_fw;
#X obj 299 101 fruit/receive testboard;
#X obj 299 126 print from_testboard;
#X obj 264 282 fruit/send testboardf0;
#X obj 503 217 fruit/receive testboardf0;
#X obj 503 242 print from_testboardf0;
#X obj 35 18 list prepend declare -path ../Fraise8;
#X msg 430 315 Coucou;
#X obj 515 83 list fromsymbol;
#X obj 515 58 symbol;
#X listbox 515 108 26 0 0 0 - - - 0;
#X msg 467 272 PBon voila c'est bien ça;
#X msg 436 47 EHello\$1;
#X floatatom 473 9 5 0 0 0 - - - 0;
#X obj 38 184 pied/pied 63 1;
#X msg 706 72 L\$1;
#X obj 709 21 hsl 170 20 1 30 0 0 empty empty empty -2 -10 0 12 #fcfcfc #000000 #000000 0 1;
#X obj 706 46 makefilename %02X;
#X floatatom 844 61 5 0 0 0 - - - 0;
#X msg 514 154 V;
#X msg 751 229 35 83 51 70;
#X obj 751 254 list tosymbol;
#X listbox 751 279 20 0 0 0 - - - 0;
#X msg 723 190 35 67 51 70;
#X connect 2 0 6 1;
#X connect 4 0 5 0;
#X connect 7 0 8 0;
#X connect 10 0 6 1;
#X connect 11 0 13 0;
#X connect 12 0 11 0;
#X connect 14 0 6 1;
#X connect 15 0 1 1;
#X connect 15 0 12 0;
#X connect 16 0 15 0;
#X connect 18 0 1 1;
#X connect 19 0 20 0;
#X connect 19 0 21 0;
#X connect 20 0 18 0;
#X connect 22 0 1 1;
#X connect 23 0 24 0;
#X connect 24 0 25 0;
#X connect 26 0 24 0;
